version = 1
nColumns = 19
nRows = 20
inDegrees = yes
endheader 
time	r_ground_force_vx	r_ground_force_vy	r_ground_force_vz	r_ground_force_px	r_ground_force_py	r_ground_force_pz	l_ground_force_vx	l_ground_force_vy	l_ground_force_vz	l_ground_force_px	l_ground_force_py	l_ground_force_pz	r_ground_torque_x	r_ground_torque_y	r_ground_torque_z	l_ground_torque_x	l_ground_torque_y	l_ground_torque_z	
          0.28010683	          0.00000000	          0.00000000	          0.00000000	          0.00000000	          0.00000000	          0.00000000	       -406.26806037	        564.85827625	        -61.10927672	          1.12127292	          0.00000000	         -0.03620413	          0.00000000	          0.00000000	          0.00000000	          0.00000000	          3.86054175	          0.00000000	
          0.28097544	          0.00000000	          0.00000000	          0.00000000	          0.00000000	          0.00000000	          0.00000000	       -277.59455085	        589.83014309	         44.81981061	          0.18178192	          0.00000000	          0.03720507	          0.00000000	          0.00000000	          0.00000000	          0.00000000	         -4.43888454	          0.00000000	
          0.28371992	          0.00000000	          0.00000000	          0.00000000	          0.00000000	          0.00000000	          0.00000000	       -141.83602508	        707.85145672	         23.39591554	          0.16184532	          0.00000000	          0.04031146	          0.00000000	          0.00000000	          0.00000000	          0.00000000	         -5.22728049	          0.00000000	
          0.28570896	          0.00000000	          0.00000000	          0.00000000	          0.00000000	          0.00000000	          0.00000000	       -151.35926154	        838.87790091	         15.92392550	          0.15298507	          0.00000000	          0.04187184	          0.00000000	          0.00000000	          0.00000000	          0.00000000	         -5.28713954	          0.00000000	
          0.28657758	          0.00000000	          0.00000000	          0.00000000	          0.00000000	          0.00000000	          0.00000000	       -145.70070852	        900.23731844	         12.90808816	          0.15017351	          0.00000000	          0.04241228	          0.00000000	          0.00000000	          0.00000000	          0.00000000	         -4.88157992	          0.00000000	
          0.28932206	          0.00000000	          0.00000000	          0.00000000	          0.00000000	          0.00000000	          0.00000000	       -143.13428851	       1077.05050522	          8.59388923	          0.14220736	          0.00000000	          0.04388630	          0.00000000	          0.00000000	          0.00000000	          0.00000000	         -3.42230569	          0.00000000	
          0.29131110	          0.00000000	          0.00000000	          0.00000000	          0.00000000	          0.00000000	          0.00000000	       -138.90196255	       1186.11591980	          6.29336083	          0.13768200	          0.00000000	          0.04469506	          0.00000000	          0.00000000	          0.00000000	          0.00000000	         -2.57443810	          0.00000000	
          0.29217972	          0.00000000	          0.00000000	          0.00000000	          0.00000000	          0.00000000	          0.00000000	       -134.50563416	       1228.12628079	          4.95726221	          0.13607645	          0.00000000	          0.04497987	          0.00000000	          0.00000000	          0.00000000	          0.00000000	         -2.34645204	          0.00000000	
          0.29492419	          0.00000000	          0.00000000	          0.00000000	          0.00000000	          0.00000000	          0.00000000	       -121.60676504	       1337.40031988	          0.93730445	          0.13248603	          0.00000000	          0.04562823	          0.00000000	          0.00000000	          0.00000000	          0.00000000	         -2.16596157	          0.00000000	
          0.29691324	          0.00000000	          0.00000000	          0.00000000	          0.00000000	          0.00000000	          0.00000000	       -114.11571261	       1394.16214022	         -1.10014416	          0.13108494	          0.00000000	          0.04591307	          0.00000000	          0.00000000	          0.00000000	          0.00000000	         -2.40795457	          0.00000000	
          0.29778185	          0.00000000	          0.00000000	          0.00000000	          0.00000000	          0.00000000	          0.00000000	       -110.82065869	       1413.77564283	         -1.76448232	          0.13077125	          0.00000000	          0.04599711	          0.00000000	          0.00000000	          0.00000000	          0.00000000	         -2.58329303	          0.00000000	
          0.30052633	          0.00000000	          0.00000000	          0.00000000	          0.00000000	          0.00000000	          0.00000000	       -103.58941666	       1462.45844123	         -3.20397110	          0.13114637	          0.00000000	          0.04609419	          0.00000000	          0.00000000	          0.00000000	          0.00000000	         -3.33878068	          0.00000000	
          0.30251537	          0.00000000	          0.00000000	          0.00000000	          0.00000000	          0.00000000	          0.00000000	       -102.19864962	       1485.60015169	         -3.18928356	          0.13234214	          0.00000000	          0.04606576	          0.00000000	          0.00000000	          0.00000000	          0.00000000	         -3.97122452	          0.00000000	
          0.30338399	          0.00000000	          0.00000000	          0.00000000	          0.00000000	          0.00000000	          0.00000000	       -101.05241006	       1493.80449819	         -3.37649703	          0.13309921	          0.00000000	          0.04602971	          0.00000000	          0.00000000	          0.00000000	          0.00000000	         -4.28318474	          0.00000000	
          0.30612847	          0.00000000	          0.00000000	          0.00000000	          0.00000000	          0.00000000	          0.00000000	       -100.62217836	       1520.23887835	         -4.37307329	          0.13669362	          0.00000000	          0.04578712	          0.00000000	          0.00000000	          0.00000000	          0.00000000	         -5.33344985	          0.00000000	
          0.30811751	          0.00000000	          0.00000000	          0.00000000	          0.00000000	          0.00000000	          0.00000000	       -103.76517094	       1537.08373669	         -4.72843914	          0.13999011	          0.00000000	          0.04555062	          0.00000000	          0.00000000	          0.00000000	          0.00000000	         -6.06595002	          0.00000000	
          0.30898613	          0.00000000	          0.00000000	          0.00000000	          0.00000000	          0.00000000	          0.00000000	       -105.76968452	       1542.98728482	         -4.68448271	          0.14150419	          0.00000000	          0.04544636	          0.00000000	          0.00000000	          0.00000000	          0.00000000	         -6.36215946	          0.00000000	
          0.31173060	          0.00000000	          0.00000000	          0.00000000	          0.00000000	          0.00000000	          0.00000000	       -111.62504112	       1555.65852434	         -4.33503538	          0.14637808	          0.00000000	          0.04513925	          0.00000000	          0.00000000	          0.00000000	          0.00000000	         -7.25844704	          0.00000000	
          0.31371965	          0.00000000	          0.00000000	          0.00000000	          0.00000000	          0.00000000	          0.00000000	       -115.12849214	       1560.71869023	         -4.11697979	          0.14993217	          0.00000000	          0.04494511	          0.00000000	          0.00000000	          0.00000000	          0.00000000	         -7.86957491	          0.00000000	
          0.31458826	          0.00000000	          0.00000000	          0.00000000	          0.00000000	          0.00000000	          0.00000000	       -116.43337272	       1562.19791798	         -4.06461294	          0.15147352	          0.00000000	          0.04486967	          0.00000000	          0.00000000	          0.00000000	          0.00000000	         -8.12375384	          0.00000000	
